<?xml version="1.0" encoding="utf-8"?>
<!-- Generator: Adobe Illustrator 22.0.0, SVG Export Plug-In . SVG Version: 6.00 Build 0)  -->
<svg version="1.1" id="Layer_1" xmlns="http://www.w3.org/2000/svg" xmlns:xlink="http://www.w3.org/1999/xlink" x="0px" y="0px"
	 viewBox="0 0 1920 754.6" style="enable-background:new 0 0 1920 754.6;" xml:space="preserve">
<style type="text/css">
	.st0{fill:#FFFFFF;}
</style>
<path class="st0" d="M1703.3,729.3c0,4.7-1.9,9-5.7,12.8c-3.8,3.8-8.3,5.7-13.5,5.7s-9.6-1.8-13.1-5.3c-3.5-3.5-5.3-7.9-5.3-13.1
	s1.7-9.7,5-13.5c3.3-3.8,7.8-5.7,13.5-5.7c5.2,0,9.7,1.9,13.5,5.7C1701.4,719.6,1703.3,724.1,1703.3,729.3 M1765.7,440.7V313.5
	c0-11.3-3.3-20.3-9.9-26.9s-15.6-9.9-26.9-9.9c-5.2,0-9.7-1.9-13.5-5.7c-3.8-3.8-5.7-8.3-5.7-13.5c0-4.7,1.9-9,5.7-12.8
	c3.8-3.8,8.3-5.7,13.5-5.7h111.9c18.4,0,34.5,5.4,48.2,16.3c17.5,13.2,26.2,32.6,26.2,58.1v127.2c0,18.4-5.4,34.5-16.3,48.2
	c-13.2,17.5-32.6,26.2-58.1,26.2h-116.2l-2.8-1.4c-8-3.8-12-9.4-12-17c0-4.7,1.7-9,5-12.7c3.3-3.8,7.6-5.7,12.8-5.7
	c8.5,0,16-1.9,22.7-5.7C1760.5,466.4,1765.7,455.8,1765.7,440.7z M1834.4,729.3c0,4.7-1.9,9-5.7,12.8c-2.7,2.7-5.7,4.4-9,5.2
	l-2.4,0.4l-2,0.1l-75.2-0.1h-2.6c-4.3-0.4-7.9-2.2-10.9-5.2c-3.5-3.5-5.3-7.9-5.3-13.1s1.7-9.7,5-13.5c2.9-3.3,6.6-5.1,11.3-5.6
	l82.3-0.2c3.4,1.4,6.4,3.1,9,5.8C1832.5,719.6,1834.4,724.1,1834.4,729.3z M1585,318.6v117.2c0,12.4,3.5,22,10.4,28.9
	c6.9,6.9,16.3,10.4,28.2,10.4h4.4l3,1.5c8.4,4,12.6,9.9,12.6,17.8c0,4.9-1.7,9.4-5.2,13.4c-3.5,4-7.9,5.9-13.3,5.9
	c-8.9,0-16.8,2-23.7,5.9c-10.9,6.4-16.3,17.6-16.3,33.4v117.2c0,11.9,3.5,21.3,10.4,28.2c6.9,6.9,16.3,10.4,28.2,10.4
	c5.4,0,10.1,2,14.1,5.9c4,4,5.9,8.7,5.9,14.1c0,4.9-2,9.4-5.9,13.4c-4,4-8.7,5.9-14.1,5.9h-117.2c-19.3,0-36.1-5.7-50.4-17.1
	c-18.3-13.8-27.4-34.1-27.4-60.8V318.6c0-19.3,5.7-36.1,17.1-50.4c13.8-18.3,34.1-27.4,60.8-27.4H1628l3,1.5
	c8.4,4,12.6,9.9,12.6,17.8c0,4.9-1.7,9.4-5.2,13.4c-3.5,4-7.9,5.9-13.3,5.9c-8.4,1-14.1,2-17.1,3
	C1592.7,288.2,1585,300.3,1585,318.6z"/>
<path class="st0" d="M163.2,317.7v117.2c0,11.9,3.5,21.3,10.4,28.2c6.9,6.9,16.3,10.4,28.2,10.4c5.4,0,10.1,2,14.1,5.9
	c4,4,5.9,8.7,5.9,14.1c0,4.9-2,9.4-5.9,13.4c-4,4-8.7,5.9-14.1,5.9H84.6c-19.3,0-36.1-5.7-50.4-17.1c-18.3-13.8-27.4-34.1-27.4-60.8
	V317.7c0-19.3,5.7-36.1,17.1-50.4c13.8-18.3,34.1-27.4,60.8-27.4h121.7l3,1.5c8.4,4,12.6,9.9,12.6,17.8c0,4.9-1.7,9.4-5.2,13.4
	c-3.5,4-7.9,5.9-13.4,5.9c-8.9,0-16.8,2-23.7,5.9C168.7,290.8,163.2,301.9,163.2,317.7 M514.1,83.3v351.6c0,26.2-8.9,46.2-26.7,60.1
	c-14.8,11.9-31.9,17.8-51.2,17.8H319c-5.4,0-10-1.9-13.7-5.6c-3.7-3.7-5.6-8.3-5.6-13.7c0-5.4,1.7-10.1,5.2-14.1
	c3.5-4,8.2-5.9,14.1-5.9c14.8,0,25.7-5.2,32.6-15.6c4.5-6.4,6.7-14.1,6.7-23V317.7c0-15.3-5.4-26.2-16.3-32.6
	c-6.9-4.5-14.6-6.7-23-6.7c-5.4,0-10-1.9-13.7-5.6c-3.7-3.7-5.6-8.3-5.6-13.7c0-12.9,6.4-19.3,19.3-19.3c15.3,0,26.2-5.4,32.6-16.3
	c4.5-6.4,6.7-14.1,6.7-23V83.3c0-19.3,5.7-36.1,17.1-50.4c13.8-18.3,34.1-27.4,60.8-27.4c25.7,0,45.7,8.9,60.1,26.7
	C508.1,46.9,514.1,64,514.1,83.3z M714.5,317.7v117.2c0,19.3-5.7,36.1-17.1,50.4c-13.8,18.3-34.1,27.4-60.8,27.4
	c-26.2,0-46.2-8.9-60.1-26.7c-11.9-14.8-17.8-31.9-17.8-51.2V317.7c0-19.3,5.7-36.1,17.1-50.4c13.8-18.3,34.1-27.4,60.8-27.4
	c25.7,0,45.7,8.9,60.1,26.7C708.5,281.4,714.5,298.4,714.5,317.7z M973.7,259.1c0,4.9-1.7,9.4-5.2,13.4c-3.5,4-7.9,5.9-13.4,5.9
	c-8.9,0-16.8,2-23.7,5.9c-10.9,6.4-16.3,17.6-16.3,33.4v117.2c0,19.3-5.7,36.1-17.1,50.4c-13.8,18.3-34.4,27.4-61.6,27.4
	c-26.2,0-46.2-8.9-60.1-26.7c-11.9-14.8-17.8-31.9-17.8-51.2V317.7c0-19.3,5.7-36.1,17.1-50.4c13.8-18.3,34.1-27.4,60.8-27.4h121.6
	l3,1.5C969.5,245.3,973.7,251.2,973.7,259.1z M1383.2,317.7v117.2c0,19.3-5.7,36.1-17.1,50.4c-13.8,18.3-34.1,27.4-60.8,27.4
	c-26.2,0-46.2-8.9-60.1-26.7c-11.9-14.8-17.8-31.9-17.8-51.2V317.7c0-15.3-5.4-26.2-16.3-32.6c-6.9-4.5-14.6-6.7-23-6.7
	c-5.4,0-10-1.9-13.7-5.6c-3.7-3.7-5.6-8.3-5.6-13.7c0-12.9,6.4-19.3,19.3-19.3h117.2c25.7,0,45.7,8.9,60.1,26.7
	C1377.2,281.4,1383.2,298.4,1383.2,317.7z M280.4,493.5c0,4.9-2,9.4-5.9,13.4c-4,4-8.7,5.9-14.1,5.9c-5.4,0-10-1.9-13.7-5.6
	c-3.7-3.7-5.6-8.3-5.6-13.7c0-5.4,1.7-10.1,5.2-14.1c3.5-4,8.2-5.9,14.1-5.9c5.4,0,10.1,2,14.1,5.9
	C278.4,483.4,280.4,488.1,280.4,493.5z M1148.8,317.7v115.9c0,20.6-5.7,37.4-17.1,51.7c-13.8,18.3-34.1,27.4-60.8,27.4
	c-26.2,0-46.2-8.9-60.1-26.7C999,471.3,993,454.2,993,434.9V317.7c0-20.6,5.7-37.4,17.1-51.7c13.8-18.3,34.1-27.4,60.8-27.4
	c26.2,0,46.2,8.9,60.1,26.7c11.9,14.8,17.8,31.9,17.8,51.2V317.7z"/>
<path class="st0" d="M79.9,625.6c0,1.5-0.3,3-0.9,4.4c-0.6,1.5-1.5,2.8-2.6,3.9c-1.1,1.1-2.4,2-3.8,2.5c-1.4,0.6-2.9,0.9-4.4,0.9
	H52.6c-1.5,0-3-0.3-4.4-0.9c-1.5-0.5-2.8-1.4-3.9-2.5c-1.1-1.1-2-2.4-2.5-3.9c-0.6-1.4-0.9-2.9-0.9-4.4v-22.2c0-1.5,0.3-3,0.9-4.5
	c0.5-1.4,1.4-2.7,2.5-3.8c2.4-2.3,5.2-3.4,8.3-3.4h14.3c1.1,0,2,0.4,2.7,1.2c0.8,0.7,1.2,1.6,1.2,2.7v-26.1h9.1V625.6z M115.2,616.8
	v8.8c0,1.1,0.4,2,1.1,2.7c0.8,0.8,1.7,1.2,2.8,1.2h13c1.1,0,2-0.4,2.7-1.2c0.8-0.7,1.2-1.6,1.2-2.7v-1.3h9.1v1.3
	c0,3.1-1.2,5.9-3.5,8.2c-2.3,2.3-5.1,3.5-8.2,3.5h-15.6c-1.5,0-3-0.3-4.4-0.9c-1.5-0.6-2.8-1.5-3.9-2.6c-1.1-1.1-2-2.4-2.5-3.8
	c-0.6-1.4-0.9-2.9-0.9-4.4v-22.2c0-1.5,0.3-3,0.9-4.5c0.5-1.4,1.4-2.7,2.5-3.8c1.1-1.1,2.4-2,3.9-2.6c1.4-0.5,2.9-0.8,4.4-0.8h15.6
	c1.5,0,3,0.3,4.4,0.8c1.4,0.6,2.7,1.5,3.8,2.6c1.1,1.1,2,2.4,2.6,3.8c0.6,1.5,0.9,3,0.9,4.5v13.3H115.2z M198.8,604.8v-1.3
	c0-1.1-0.4-2-1.2-2.8c-0.7-0.7-1.6-1.1-2.7-1.1h-11.7c-1.1,0-2.1,0.4-2.8,1.1c-0.7,0.7-1.1,1.7-1.1,2.8v1.9c0,1.1,0.4,2,1.1,2.7
	c0.8,0.8,1.7,1.2,2.8,1.2h14.3c1.5,0,3,0.3,4.4,0.8c1.4,0.6,2.7,1.5,3.8,2.6c1.1,1.1,2,2.4,2.6,3.8c0.6,1.5,0.9,3,0.9,4.5v4.6
	c0,3.1-1.2,5.9-3.5,8.2c-2.3,2.3-5.1,3.5-8.2,3.5h-15.6c-1.5,0-3-0.3-4.4-0.9c-1.5-0.6-2.8-1.5-3.9-2.6c-1.1-1.1-2-2.4-2.5-3.8
	c-0.6-1.4-0.9-2.9-0.9-4.4v-3.9h9.1v3.9c0,1.1,0.4,2,1.1,2.7c0.8,0.8,1.7,1.2,2.8,1.2h13c1.1,0,2-0.4,2.7-1.2
	c0.8-0.7,1.2-1.6,1.2-2.7V621c0-1.1-0.4-2-1.2-2.8c-0.7-0.7-1.6-1.1-2.7-1.1h-14.3c-1.5,0-3-0.3-4.4-0.9c-1.5-0.6-2.8-1.5-3.9-2.6
	c-1.1-1.1-2-2.4-2.5-3.8c-0.6-1.4-0.9-2.9-0.9-4.4v-1.9c0-1.5,0.3-3,0.9-4.5c0.5-1.4,1.4-2.7,2.5-3.8c1.1-1.1,2.4-2,3.9-2.6
	c1.4-0.5,2.9-0.8,4.4-0.8h14.3c1.5,0,3,0.3,4.4,0.8c1.4,0.6,2.7,1.5,3.8,2.6s2,2.4,2.6,3.8c0.6,1.5,0.9,3,0.9,4.5v1.3H198.8z
	 M278,628.3v9.1h-1.3c-1.4,0-2.8-0.3-4.1-0.8s-2.6-1.2-3.7-2.2c-2.3,2-4.9,3-7.8,3h-15.6c-1.5,0-3-0.3-4.4-0.9
	c-1.5-0.6-2.8-1.5-3.9-2.6s-2-2.4-2.5-3.8c-0.6-1.4-0.9-2.9-0.9-4.4V620c0-1.5,0.3-3,0.9-4.5c0.5-1.4,1.4-2.7,2.5-3.8
	c2.4-2.3,5.2-3.4,8.3-3.4h18.2v-4.8c0-1.1-0.4-2-1.2-2.8c-0.7-0.7-1.6-1.1-2.7-1.1H248c-1.1,0-2.1,0.4-2.8,1.1
	c-0.7,0.7-1.1,1.7-1.1,2.8v1.3H235v-1.3c0-1.5,0.3-3,0.9-4.5c0.5-1.4,1.4-2.7,2.5-3.8c1.1-1.1,2.4-2,3.9-2.6
	c1.4-0.5,2.9-0.8,4.4-0.8H261c1.5,0,3,0.3,4.4,0.8c1.4,0.6,2.7,1.5,3.8,2.6s2,2.4,2.6,3.8c0.6,1.5,0.9,3,0.9,4.5v20.9
	c0,1.1,0.4,2,1.1,2.7c0.8,0.8,1.7,1.2,2.8,1.2H278z M311.8,637.4h-9.1v-33.9c0-1.5,0.3-3,0.9-4.5c0.5-1.4,1.4-2.7,2.5-3.8
	s2.4-2,3.9-2.6c1.4-0.5,2.9-0.8,4.4-0.8h13c1.5,0,3,0.3,4.4,0.8c1.4,0.6,2.7,1.5,3.8,2.6s2,2.4,2.6,3.8c0.6,1.5,0.9,3,0.9,4.5v3.9
	h-9.1v-3.9c0-1.1-0.4-2-1.2-2.8c-0.7-0.7-1.6-1.1-2.7-1.1h-10.4c-1.1,0-2.1,0.4-2.8,1.1c-0.7,0.7-1.1,1.7-1.1,2.8V637.4z
	 M371.7,637.4h-9.1v-33.9c0-1.5,0.3-3,0.9-4.5c0.5-1.4,1.4-2.7,2.5-3.8c1.1-1.1,2.4-2,3.9-2.6c1.4-0.5,2.9-0.8,4.4-0.8h13
	c1.5,0,3,0.3,4.4,0.8c1.4,0.6,2.7,1.5,3.8,2.6s2,2.4,2.6,3.8c0.6,1.5,0.9,3,0.9,4.5v3.9h-9.1v-3.9c0-1.1-0.4-2-1.2-2.8
	c-0.7-0.7-1.6-1.1-2.7-1.1h-10.4c-1.1,0-2.1,0.4-2.8,1.1c-0.7,0.7-1.1,1.7-1.1,2.8V637.4z M457.7,595.2c1.1,1.1,2,2.4,2.6,3.8
	c0.6,1.5,0.9,3,0.9,4.5v22.2c0,3.1-1.2,5.9-3.5,8.2c-2.3,2.3-5.1,3.5-8.2,3.5h-15.6c-1.5,0-3-0.3-4.4-0.9c-1.5-0.6-2.8-1.5-3.9-2.6
	c-1.1-1.1-2-2.4-2.5-3.8c-0.6-1.4-0.9-2.9-0.9-4.4v-22.2c0-1.5,0.3-3,0.9-4.5c0.5-1.4,1.4-2.7,2.5-3.8c1.1-1.1,2.4-2,3.9-2.6
	c1.4-0.5,2.9-0.8,4.4-0.8h15.6c1.5,0,3,0.3,4.4,0.8C455.3,593.2,456.6,594.1,457.7,595.2z M487.3,565.7h9.1v71.7h-9.1V565.7z
	 M523.6,565.7h9.1v71.7h-9.1V565.7z M594.9,595.2c1.1,1.1,2,2.4,2.6,3.8c0.6,1.5,0.9,3,0.9,4.5v22.2c0,3.1-1.2,5.9-3.5,8.2
	c-2.3,2.3-5.1,3.5-8.2,3.5h-15.6c-1.5,0-3-0.3-4.4-0.9c-1.5-0.6-2.8-1.5-3.9-2.6s-2-2.4-2.5-3.8c-0.6-1.4-0.9-2.9-0.9-4.4v-22.2
	c0-1.5,0.3-3,0.9-4.5c0.5-1.4,1.4-2.7,2.5-3.8s2.4-2,3.9-2.6c1.4-0.5,2.9-0.8,4.4-0.8h15.6c1.5,0,3,0.3,4.4,0.8
	C592.5,593.2,593.8,594.1,594.9,595.2z M690.4,616.8v8.8c0,1.1,0.4,2,1.1,2.7c0.8,0.8,1.7,1.2,2.8,1.2h13c1.1,0,2-0.4,2.7-1.2
	c0.8-0.7,1.2-1.6,1.2-2.7v-1.3h9.1v1.3c0,3.1-1.2,5.9-3.5,8.2c-2.3,2.3-5.1,3.5-8.2,3.5H693c-1.5,0-3-0.3-4.4-0.9
	c-1.5-0.6-2.8-1.5-3.9-2.6s-2-2.4-2.5-3.8c-0.6-1.4-0.9-2.9-0.9-4.4v-22.2c0-1.5,0.3-3,0.9-4.5c0.5-1.4,1.4-2.7,2.5-3.8
	s2.4-2,3.9-2.6c1.4-0.5,2.9-0.8,4.4-0.8h15.6c1.5,0,3,0.3,4.4,0.8c1.4,0.6,2.7,1.5,3.8,2.6s2,2.4,2.6,3.8c0.6,1.5,0.9,3,0.9,4.5
	v13.3H690.4z M803,591.8h9.1v45.6H803V591.8z M847.8,637.4h-9.1v-33.9c0-1.5,0.3-3,0.9-4.5c0.5-1.4,1.4-2.7,2.5-3.8
	c1.1-1.1,2.4-2,3.9-2.6c1.4-0.5,2.9-0.8,4.4-0.8h15.6c1.5,0,3,0.3,4.4,0.8c1.4,0.6,2.7,1.5,3.8,2.6c1.1,1.1,2,2.4,2.6,3.8
	c0.6,1.5,0.9,3,0.9,4.5v33.9h-9.1v-33.9c0-1.1-0.4-2-1.2-2.8c-0.7-0.7-1.6-1.1-2.7-1.1h-13c-1.1,0-2.1,0.4-2.8,1.1
	c-0.7,0.7-1.1,1.7-1.1,2.8V637.4z M913.2,637.4h-9.1v-33.9c0-1.5,0.3-3,0.9-4.5c0.5-1.4,1.4-2.7,2.5-3.8c1.1-1.1,2.4-2,3.9-2.6
	c1.4-0.5,2.9-0.8,4.4-0.8h15.6c1.5,0,3,0.3,4.4,0.8c1.4,0.6,2.7,1.5,3.8,2.6s2,2.4,2.6,3.8c0.6,1.5,0.9,3,0.9,4.5v33.9H934v-33.9
	c0-1.1-0.4-2-1.2-2.8c-0.7-0.7-1.6-1.1-2.7-1.1h-13c-1.1,0-2.1,0.4-2.8,1.1s-1.1,1.7-1.1,2.8V637.4z M1004.7,595.2
	c1.1,1.1,2,2.4,2.6,3.8c0.6,1.5,0.9,3,0.9,4.5v22.2c0,3.1-1.2,5.9-3.5,8.2c-2.3,2.3-5.1,3.5-8.2,3.5h-15.6c-1.5,0-3-0.3-4.4-0.9
	c-1.5-0.6-2.8-1.5-3.9-2.6s-2-2.4-2.5-3.8c-0.6-1.4-0.9-2.9-0.9-4.4v-22.2c0-1.5,0.3-3,0.9-4.5c0.5-1.4,1.4-2.7,2.5-3.8
	s2.4-2,3.9-2.6c1.4-0.5,2.9-0.8,4.4-0.8h15.6c1.5,0,3,0.3,4.4,0.8C1002.3,593.2,1003.6,594.1,1004.7,595.2z M1062.7,591.8h9.1
	l-3.9,33.9c-0.2,1.5-0.5,3-1,4.4s-1.4,2.7-2.5,3.8c-2.3,2.3-5.1,3.5-8.2,3.5h-7.8c-1.5,0-3-0.3-4.4-0.9c-1.5-0.6-2.8-1.5-3.9-2.6
	c-1.1-1.1-1.9-2.4-2.4-3.8s-0.9-2.9-1-4.4l-3.9-33.9h9.1l3.9,33.9c0,1.1,0.4,2,1.1,2.7c0.8,0.8,1.7,1.2,2.8,1.2h5.2
	c1.1,0,2-0.4,2.7-1.2c0.8-0.7,1.2-1.6,1.2-2.7L1062.7,591.8z M1140.3,628.3v9.1h-1.3c-1.4,0-2.8-0.3-4.1-0.8
	c-1.3-0.5-2.6-1.2-3.7-2.2c-2.3,2-4.9,3-7.8,3h-15.6c-1.5,0-3-0.3-4.4-0.9c-1.5-0.6-2.8-1.5-3.9-2.6c-1.1-1.1-2-2.4-2.5-3.8
	c-0.6-1.4-0.9-2.9-0.9-4.4V620c0-1.5,0.3-3,0.9-4.5c0.5-1.4,1.4-2.7,2.5-3.8c2.4-2.3,5.2-3.4,8.3-3.4h18.2v-4.8c0-1.1-0.4-2-1.2-2.8
	c-0.7-0.7-1.6-1.1-2.7-1.1h-11.7c-1.1,0-2.1,0.4-2.8,1.1s-1.1,1.7-1.1,2.8v1.3h-9.1v-1.3c0-1.5,0.3-3,0.9-4.5
	c0.5-1.4,1.4-2.7,2.5-3.8c1.1-1.1,2.4-2,3.9-2.6c1.4-0.5,2.9-0.8,4.4-0.8h14.3c1.5,0,3,0.3,4.4,0.8c1.4,0.6,2.7,1.5,3.8,2.6
	c1.1,1.1,2,2.4,2.6,3.8c0.6,1.5,0.9,3,0.9,4.5v20.9c0,1.1,0.4,2,1.1,2.7c0.8,0.8,1.7,1.2,2.8,1.2H1140.3z M1194.7,607.4v-3.9
	c0-1.1-0.4-2-1.2-2.8c-0.7-0.7-1.6-1.1-2.7-1.1h-13c-1.1,0-2.1,0.4-2.8,1.1s-1.1,1.7-1.1,2.8v22.2c0,1.1,0.4,2,1.1,2.7
	c0.8,0.8,1.7,1.2,2.8,1.2h13c1.1,0,2-0.4,2.7-1.2c0.8-0.7,1.2-1.6,1.2-2.7v-3.9h9.1v3.9c0,3.1-1.2,5.9-3.5,8.2
	c-2.3,2.3-5.1,3.5-8.2,3.5h-15.6c-1.5,0-3-0.3-4.4-0.9c-1.5-0.6-2.8-1.5-3.9-2.6c-1.1-1.1-2-2.4-2.5-3.8c-0.6-1.4-0.9-2.9-0.9-4.4
	v-22.2c0-1.5,0.3-3,0.9-4.5c0.5-1.4,1.4-2.7,2.5-3.8c1.1-1.1,2.4-2,3.9-2.6c1.4-0.5,2.9-0.8,4.4-0.8h15.6c1.5,0,3,0.3,4.4,0.8
	c1.4,0.6,2.7,1.5,3.8,2.6c1.1,1.1,2,2.4,2.6,3.8c0.6,1.5,0.9,3,0.9,4.5v3.9H1194.7z M1229.1,591.8h9.1v45.6h-9.1V591.8z M1300,595.2
	c1.1,1.1,2,2.4,2.6,3.8c0.6,1.5,0.9,3,0.9,4.5v22.2c0,3.1-1.2,5.9-3.5,8.2c-2.3,2.3-5.1,3.5-8.2,3.5h-15.6c-1.5,0-3-0.3-4.4-0.9
	c-1.5-0.6-2.8-1.5-3.9-2.6c-1.1-1.1-2-2.4-2.5-3.8c-0.6-1.4-0.9-2.9-0.9-4.4v-22.2c0-1.5,0.3-3,0.9-4.5c0.5-1.4,1.4-2.7,2.5-3.8
	c1.1-1.1,2.4-2,3.9-2.6c1.4-0.5,2.9-0.8,4.4-0.8h15.6c1.5,0,3,0.3,4.4,0.8C1297.6,593.2,1298.9,594.1,1300,595.2z M1338.6,637.4
	h-9.1v-33.9c0-1.5,0.3-3,0.9-4.5c0.5-1.4,1.4-2.7,2.5-3.8c1.1-1.1,2.4-2,3.9-2.6c1.4-0.5,2.9-0.8,4.4-0.8h15.6c1.5,0,3,0.3,4.4,0.8
	c1.4,0.6,2.7,1.5,3.8,2.6c1.1,1.1,2,2.4,2.6,3.8c0.6,1.5,0.9,3,0.9,4.5v33.9h-9.1v-33.9c0-1.1-0.4-2-1.2-2.8
	c-0.7-0.7-1.6-1.1-2.7-1.1h-13c-1.1,0-2.1,0.4-2.8,1.1c-0.7,0.7-1.1,1.7-1.1,2.8V637.4z M53.9,599.6c-1.1,0-2,0.4-2.8,1.2
	c-0.7,0.7-1.1,1.6-1.1,2.7v22.2c0,1.1,0.4,2.1,1.1,2.8c0.9,0.7,1.8,1.1,2.8,1.1h13c1.1,0,2-0.4,2.7-1.1c0.8-0.8,1.2-1.7,1.2-2.8
	v-22.2c0-1.1-0.4-2-1.2-2.7c-0.7-0.8-1.6-1.2-2.7-1.2H53.9z M263.6,616.1h-16.9c-1.1,0-2,0.4-2.8,1.2c-0.7,0.7-1.1,1.6-1.1,2.7v5.6
	c0,1.1,0.4,2,1.1,2.7c0.8,0.8,1.7,1.2,2.8,1.2h13c1.1,0,2-0.4,2.7-1.2c0.8-0.7,1.2-1.6,1.2-2.7V616.1z M452,603.5
	c0-1.1-0.4-2-1.2-2.8c-0.7-0.7-1.6-1.1-2.7-1.1h-13c-1.1,0-2.1,0.4-2.8,1.1s-1.1,1.7-1.1,2.8v22.2c0,1.1,0.4,2,1.1,2.7
	c0.8,0.8,1.7,1.2,2.8,1.2h13c1.1,0,2-0.4,2.7-1.2c0.8-0.7,1.2-1.6,1.2-2.7V603.5z M589.3,603.5c0-1.1-0.4-2-1.2-2.8
	c-0.7-0.7-1.6-1.1-2.7-1.1h-13c-1.1,0-2.1,0.4-2.8,1.1c-0.7,0.7-1.1,1.7-1.1,2.8v22.2c0,1.1,0.4,2,1.1,2.7c0.8,0.8,1.7,1.2,2.8,1.2
	h13c1.1,0,2-0.4,2.7-1.2c0.8-0.7,1.2-1.6,1.2-2.7V603.5z M999.1,603.5c0-1.1-0.4-2-1.2-2.8c-0.7-0.7-1.6-1.1-2.7-1.1h-13
	c-1.1,0-2.1,0.4-2.8,1.1c-0.7,0.7-1.1,1.7-1.1,2.8v22.2c0,1.1,0.4,2,1.1,2.7c0.8,0.8,1.7,1.2,2.8,1.2h13c1.1,0,2-0.4,2.7-1.2
	c0.8-0.7,1.2-1.6,1.2-2.7V603.5z M1126,616.1H1109c-1.1,0-2,0.4-2.8,1.2c-0.7,0.7-1.1,1.6-1.1,2.7v5.6c0,1.1,0.4,2,1.1,2.7
	c0.8,0.8,1.7,1.2,2.8,1.2h13c1.1,0,2-0.4,2.7-1.2c0.8-0.7,1.2-1.6,1.2-2.7V616.1z M1294.4,603.5c0-1.1-0.4-2-1.2-2.8
	c-0.7-0.7-1.6-1.1-2.7-1.1h-13c-1.1,0-2.1,0.4-2.8,1.1s-1.1,1.7-1.1,2.8v22.2c0,1.1,0.4,2,1.1,2.7c0.8,0.8,1.7,1.2,2.8,1.2h13
	c1.1,0,2-0.4,2.7-1.2c0.8-0.7,1.2-1.6,1.2-2.7V603.5z M115.2,609h20.9v-5.5c0-1.1-0.4-2-1.2-2.8c-0.7-0.7-1.6-1.1-2.7-1.1h-13
	c-1.1,0-2.1,0.4-2.8,1.1s-1.1,1.7-1.1,2.8V609z M690.4,609h20.9v-5.5c0-1.1-0.4-2-1.2-2.8c-0.7-0.7-1.6-1.1-2.7-1.1h-13
	c-1.1,0-2.1,0.4-2.8,1.1c-0.7,0.7-1.1,1.7-1.1,2.8V609z M803,575.4h9.1v8.4H803V575.4z M1229.1,575.4h9.1v8.4h-9.1V575.4z"/>
<path class="st0" d="M79.9,732.8c0,1.5-0.3,3-0.9,4.4c-0.6,1.5-1.5,2.8-2.6,3.9c-1.1,1.1-2.4,2-3.8,2.5c-1.4,0.6-2.9,0.9-4.4,0.9
	H52.6c-1.5,0-3-0.3-4.4-0.9c-1.5-0.5-2.8-1.4-3.9-2.5c-1.1-1.1-2-2.4-2.5-3.9c-0.6-1.4-0.9-2.9-0.9-4.4v-22.2c0-1.5,0.3-3,0.9-4.5
	c0.5-1.4,1.4-2.7,2.5-3.8c2.4-2.3,5.2-3.4,8.3-3.4h14.3c1.1,0,2,0.4,2.7,1.2c0.8,0.7,1.2,1.6,1.2,2.7v-26.1h9.1V732.8z M119.6,724
	v8.8c0,1.1,0.4,2,1.1,2.7c0.8,0.8,1.7,1.2,2.8,1.2h13c1.1,0,2-0.4,2.7-1.2c0.8-0.7,1.2-1.6,1.2-2.7v-1.3h9.1v1.3
	c0,3.1-1.2,5.9-3.5,8.2c-2.3,2.3-5.1,3.5-8.2,3.5h-15.6c-1.5,0-3-0.3-4.4-0.9c-1.5-0.6-2.8-1.5-3.9-2.6c-1.1-1.1-2-2.4-2.5-3.8
	c-0.6-1.4-0.9-2.9-0.9-4.4v-22.2c0-1.5,0.3-3,0.9-4.5c0.5-1.4,1.4-2.7,2.5-3.8c1.1-1.1,2.4-2,3.9-2.6c1.4-0.5,2.9-0.8,4.4-0.8h15.6
	c1.5,0,3,0.3,4.4,0.8c1.4,0.6,2.7,1.5,3.8,2.6c1.1,1.1,2,2.4,2.6,3.8c0.6,1.5,0.9,3,0.9,4.5V724H119.6z M236.9,744.6v-33.9
	c0-3.1,1.1-5.9,3.4-8.3c1.1-1.1,2.4-2,3.9-2.6c1.4-0.5,2.9-0.8,4.4-0.8h5.2c2.7,0,5.1,0.8,7.2,2.4c2.1-1.6,4.4-2.4,7.1-2.4h5.2
	c1.5,0,3,0.3,4.5,0.8c1.4,0.6,2.7,1.5,3.8,2.6s2,2.4,2.6,3.8c0.5,1.5,0.8,3,0.8,4.5v33.9H276v-33.9c0-1-0.4-1.9-1.1-2.8
	c-0.7-0.7-1.7-1.1-2.8-1.1h-2.6c-1.1,0-2,0.4-2.7,1.1c-0.8,0.8-1.2,1.7-1.2,2.8v33.9h-9.1v-33.9c0-1-0.4-1.9-1.1-2.8
	c-0.7-0.7-1.7-1.1-2.8-1.1h-2.6c-1.1,0-2,0.4-2.7,1.1c-0.8,0.8-1.2,1.7-1.2,2.8v33.9H236.9z M351.2,702.4c1.1,1.1,2,2.4,2.6,3.8
	c0.6,1.5,0.9,3,0.9,4.5v22.2c0,3.1-1.2,5.9-3.5,8.2c-2.3,2.3-5.1,3.5-8.2,3.5h-15.6c-1.5,0-3-0.3-4.4-0.9c-1.5-0.6-2.8-1.5-3.9-2.6
	s-2-2.4-2.5-3.8c-0.6-1.4-0.9-2.9-0.9-4.4v-22.2c0-1.5,0.3-3,0.9-4.5c0.5-1.4,1.4-2.7,2.5-3.8s2.4-2,3.9-2.6
	c1.4-0.5,2.9-0.8,4.4-0.8H343c1.5,0,3,0.3,4.4,0.8C348.8,700.3,350.1,701.2,351.2,702.4z M420.4,732.8c0,1.5-0.3,3-0.9,4.4
	c-0.6,1.5-1.5,2.8-2.6,3.9c-1.1,1.1-2.4,2-3.8,2.5c-1.4,0.6-2.9,0.9-4.4,0.9H393c-1.5,0-3-0.3-4.4-0.9c-1.5-0.5-2.8-1.4-3.9-2.5
	c-1.1-1.1-2-2.4-2.5-3.9c-0.6-1.4-0.9-2.9-0.9-4.4v-22.2c0-1.5,0.3-3,0.9-4.5c0.5-1.4,1.4-2.7,2.5-3.8c2.4-2.3,5.2-3.4,8.3-3.4h14.3
	c1.1,0,2,0.4,2.7,1.2c0.8,0.7,1.2,1.6,1.2,2.7v-26.1h9.1V732.8z M460.1,724v8.8c0,1.1,0.4,2,1.1,2.7c0.8,0.8,1.7,1.2,2.8,1.2h13
	c1.1,0,2-0.4,2.7-1.2c0.8-0.7,1.2-1.6,1.2-2.7v-1.3h9.1v1.3c0,3.1-1.2,5.9-3.5,8.2c-2.3,2.3-5.1,3.5-8.2,3.5h-15.6
	c-1.5,0-3-0.3-4.4-0.9c-1.5-0.6-2.8-1.5-3.9-2.6s-2-2.4-2.5-3.8c-0.6-1.4-0.9-2.9-0.9-4.4v-22.2c0-1.5,0.3-3,0.9-4.5
	c0.5-1.4,1.4-2.7,2.5-3.8s2.4-2,3.9-2.6c1.4-0.5,2.9-0.8,4.4-0.8h15.6c1.5,0,3,0.3,4.4,0.8c1.4,0.6,2.7,1.5,3.8,2.6
	c1.1,1.1,2,2.4,2.6,3.8c0.6,1.5,0.9,3,0.9,4.5V724H460.1z M520.3,672.9h9.1v71.7h-9.1V672.9z M596.1,702.4c1.1,1.1,2,2.4,2.6,3.8
	c0.6,1.5,0.9,3,0.9,4.5v22.2c0,3.1-1.2,5.9-3.5,8.2c-2.3,2.3-5.1,3.5-8.2,3.5h-15.6c-1.5,0-3-0.3-4.4-0.9c-1.5-0.6-2.8-1.5-3.9-2.6
	c-1.1-1.1-2-2.4-2.5-3.8c-0.6-1.4-0.9-2.9-0.9-4.4v-22.2c0-1.5,0.3-3,0.9-4.5c0.5-1.4,1.4-2.7,2.5-3.8c1.1-1.1,2.4-2,3.9-2.6
	c1.4-0.5,2.9-0.8,4.4-0.8h15.6c1.5,0,3,0.3,4.4,0.8C593.7,700.3,595,701.2,596.1,702.4z M658,712v-1.3c0-1.1-0.4-2-1.2-2.8
	c-0.7-0.7-1.6-1.1-2.7-1.1h-11.7c-1.1,0-2.1,0.4-2.8,1.1s-1.1,1.7-1.1,2.8v1.9c0,1.1,0.4,2,1.1,2.7c0.8,0.8,1.7,1.2,2.8,1.2h14.3
	c1.5,0,3,0.3,4.4,0.8c1.4,0.6,2.7,1.5,3.8,2.6c1.1,1.1,2,2.4,2.6,3.8c0.6,1.5,0.9,3,0.9,4.5v4.6c0,3.1-1.2,5.9-3.5,8.2
	c-2.3,2.3-5.1,3.5-8.2,3.5H641c-1.5,0-3-0.3-4.4-0.9c-1.5-0.6-2.8-1.5-3.9-2.6s-2-2.4-2.5-3.8c-0.6-1.4-0.9-2.9-0.9-4.4v-3.9h9.1
	v3.9c0,1.1,0.4,2,1.1,2.7c0.8,0.8,1.7,1.2,2.8,1.2h13c1.1,0,2-0.4,2.7-1.2c0.8-0.7,1.2-1.6,1.2-2.7v-4.6c0-1.1-0.4-2-1.2-2.8
	c-0.7-0.7-1.6-1.1-2.7-1.1H641c-1.5,0-3-0.3-4.4-0.9c-1.5-0.6-2.8-1.5-3.9-2.6c-1.1-1.1-2-2.4-2.5-3.8c-0.6-1.4-0.9-2.9-0.9-4.4
	v-1.9c0-1.5,0.3-3,0.9-4.5c0.5-1.4,1.4-2.7,2.5-3.8s2.4-2,3.9-2.6c1.4-0.5,2.9-0.8,4.4-0.8h14.3c1.5,0,3,0.3,4.4,0.8
	c1.4,0.6,2.7,1.5,3.8,2.6c1.1,1.1,2,2.4,2.6,3.8c0.6,1.5,0.9,3,0.9,4.5v1.3H658z M764.1,724v8.8c0,1.1,0.4,2,1.1,2.7
	c0.8,0.8,1.7,1.2,2.8,1.2h13c1.1,0,2-0.4,2.7-1.2c0.8-0.7,1.2-1.6,1.2-2.7v-1.3h9.1v1.3c0,3.1-1.2,5.9-3.5,8.2
	c-2.3,2.3-5.1,3.5-8.2,3.5h-15.6c-1.5,0-3-0.3-4.4-0.9c-1.5-0.6-2.8-1.5-3.9-2.6s-2-2.4-2.5-3.8c-0.6-1.4-0.9-2.9-0.9-4.4v-22.2
	c0-1.5,0.3-3,0.9-4.5c0.5-1.4,1.4-2.7,2.5-3.8s2.4-2,3.9-2.6c1.4-0.5,2.9-0.8,4.4-0.8h15.6c1.5,0,3,0.3,4.4,0.8
	c1.4,0.6,2.7,1.5,3.8,2.6c1.1,1.1,2,2.4,2.6,3.8c0.6,1.5,0.9,3,0.9,4.5V724H764.1z M859.4,732.8c0,1.5-0.3,3-0.9,4.4
	c-0.6,1.5-1.5,2.8-2.6,3.9c-1.1,1.1-2.4,2-3.8,2.5c-1.4,0.6-2.9,0.9-4.4,0.9h-15.6c-1.5,0-3-0.3-4.4-0.9c-1.5-0.5-2.8-1.4-3.9-2.5
	c-1.1-1.1-2-2.4-2.5-3.9c-0.6-1.4-0.9-2.9-0.9-4.4v-22.2c0-1.5,0.3-3,0.9-4.5c0.5-1.4,1.4-2.7,2.5-3.8c2.4-2.3,5.2-3.4,8.3-3.4h14.3
	c1.1,0,2,0.4,2.7,1.2c0.8,0.7,1.2,1.6,1.2,2.7v-26.1h9.1V732.8z M920.3,698.9h9.1v33.9c0,3.1-1.2,5.9-3.5,8.2
	c-2.3,2.3-5.1,3.5-8.2,3.5h-15.6c-1.5,0-3-0.3-4.4-0.9c-1.5-0.6-2.8-1.5-3.9-2.6s-2-2.4-2.5-3.8c-0.6-1.4-0.9-2.9-0.9-4.4v-33.9h9.1
	v33.9c0,1.1,0.4,2,1.1,2.7c0.8,0.8,1.7,1.2,2.8,1.2h13c1.1,0,2-0.4,2.7-1.2c0.8-0.7,1.2-1.6,1.2-2.7V698.9z M989.8,714.6v-3.9
	c0-1.1-0.4-2-1.2-2.8c-0.7-0.7-1.6-1.1-2.7-1.1h-13c-1.1,0-2.1,0.4-2.8,1.1s-1.1,1.7-1.1,2.8v22.2c0,1.1,0.4,2,1.1,2.7
	c0.8,0.8,1.7,1.2,2.8,1.2h13c1.1,0,2-0.4,2.7-1.2c0.8-0.7,1.2-1.6,1.2-2.7v-3.9h9.1v3.9c0,3.1-1.2,5.9-3.5,8.2
	c-2.3,2.3-5.1,3.5-8.2,3.5h-15.6c-1.5,0-3-0.3-4.4-0.9c-1.5-0.6-2.8-1.5-3.9-2.6s-2-2.4-2.5-3.8c-0.6-1.4-0.9-2.9-0.9-4.4v-22.2
	c0-1.5,0.3-3,0.9-4.5c0.5-1.4,1.4-2.7,2.5-3.8s2.4-2,3.9-2.6c1.4-0.5,2.9-0.8,4.4-0.8h15.6c1.5,0,3,0.3,4.4,0.8
	c1.4,0.6,2.7,1.5,3.8,2.6s2,2.4,2.6,3.8c0.6,1.5,0.9,3,0.9,4.5v3.9H989.8z M1072.2,735.4v9.1h-1.3c-1.4,0-2.8-0.3-4.1-0.8
	s-2.6-1.2-3.7-2.2c-2.3,2-4.9,3-7.8,3h-15.6c-1.5,0-3-0.3-4.4-0.9c-1.5-0.6-2.8-1.5-3.9-2.6c-1.1-1.1-2-2.4-2.5-3.8
	c-0.6-1.4-0.9-2.9-0.9-4.4v-5.6c0-1.5,0.3-3,0.9-4.5c0.5-1.4,1.4-2.7,2.5-3.8c2.4-2.3,5.2-3.4,8.3-3.4h18.2v-4.8
	c0-1.1-0.4-2-1.2-2.8c-0.7-0.7-1.6-1.1-2.7-1.1h-11.7c-1.1,0-2.1,0.4-2.8,1.1s-1.1,1.7-1.1,2.8v1.3h-9.1v-1.3c0-1.5,0.3-3,0.9-4.5
	c0.5-1.4,1.4-2.7,2.5-3.8s2.4-2,3.9-2.6c1.4-0.5,2.9-0.8,4.4-0.8h14.3c1.5,0,3,0.3,4.4,0.8c1.4,0.6,2.7,1.5,3.8,2.6
	c1.1,1.1,2,2.4,2.6,3.8c0.6,1.5,0.9,3,0.9,4.5v20.9c0,1.1,0.4,2,1.1,2.7c0.8,0.8,1.7,1.2,2.8,1.2H1072.2z M1127.8,736.7v7.8h-9.8
	c-1.5,0-3-0.3-4.4-0.9c-1.5-0.6-2.8-1.5-3.9-2.6c-1.1-1.1-2-2.4-2.5-3.8c-0.6-1.4-0.9-2.9-0.9-4.4v-26.1h-9.1v-7.8h9.1v-20.9h9.1
	v20.9h9.1v7.8h-9.1v26.1c0,1.1,0.4,2,1.1,2.7c0.8,0.8,1.7,1.2,2.8,1.2H1127.8z M1154.8,698.9h9.1v45.6h-9.1V698.9z M1223.5,698.9
	h9.1l-3.9,33.9c-0.2,1.5-0.5,3-1,4.4c-0.5,1.4-1.4,2.7-2.5,3.8c-2.3,2.3-5.1,3.5-8.2,3.5h-7.8c-1.5,0-3-0.3-4.4-0.9
	c-1.5-0.6-2.8-1.5-3.9-2.6c-1.1-1.1-1.9-2.4-2.4-3.8c-0.5-1.4-0.9-2.9-1-4.4l-3.9-33.9h9.1l3.9,33.9c0,1.1,0.4,2,1.1,2.7
	c0.8,0.8,1.7,1.2,2.8,1.2h5.2c1.1,0,2-0.4,2.7-1.2c0.8-0.7,1.2-1.6,1.2-2.7L1223.5,698.9z M1297.3,702.4c1.1,1.1,2,2.4,2.6,3.8
	c0.6,1.5,0.9,3,0.9,4.5v22.2c0,3.1-1.2,5.9-3.5,8.2c-2.3,2.3-5.1,3.5-8.2,3.5h-15.6c-1.5,0-3-0.3-4.4-0.9c-1.5-0.6-2.8-1.5-3.9-2.6
	c-1.1-1.1-2-2.4-2.5-3.8c-0.6-1.4-0.9-2.9-0.9-4.4v-22.2c0-1.5,0.3-3,0.9-4.5c0.5-1.4,1.4-2.7,2.5-3.8c1.1-1.1,2.4-2,3.9-2.6
	c1.4-0.5,2.9-0.8,4.4-0.8h15.6c1.5,0,3,0.3,4.4,0.8C1294.9,700.3,1296.2,701.2,1297.3,702.4z M1359.2,712v-1.3c0-1.1-0.4-2-1.2-2.8
	c-0.7-0.7-1.6-1.1-2.7-1.1h-11.7c-1.1,0-2.1,0.4-2.8,1.1s-1.1,1.7-1.1,2.8v1.9c0,1.1,0.4,2,1.1,2.7c0.8,0.8,1.7,1.2,2.8,1.2h14.3
	c1.5,0,3,0.3,4.4,0.8c1.4,0.6,2.7,1.5,3.8,2.6c1.1,1.1,2,2.4,2.6,3.8c0.6,1.5,0.9,3,0.9,4.5v4.6c0,3.1-1.2,5.9-3.5,8.2
	c-2.3,2.3-5.1,3.5-8.2,3.5h-15.6c-1.5,0-3-0.3-4.4-0.9c-1.5-0.6-2.8-1.5-3.9-2.6c-1.1-1.1-2-2.4-2.5-3.8c-0.6-1.4-0.9-2.9-0.9-4.4
	v-3.9h9.1v3.9c0,1.1,0.4,2,1.1,2.7c0.8,0.8,1.7,1.2,2.8,1.2h13c1.1,0,2-0.4,2.7-1.2c0.8-0.7,1.2-1.6,1.2-2.7v-4.6
	c0-1.1-0.4-2-1.2-2.8c-0.7-0.7-1.6-1.1-2.7-1.1h-14.3c-1.5,0-3-0.3-4.4-0.9c-1.5-0.6-2.8-1.5-3.9-2.6c-1.1-1.1-2-2.4-2.5-3.8
	c-0.6-1.4-0.9-2.9-0.9-4.4v-1.9c0-1.5,0.3-3,0.9-4.5c0.5-1.4,1.4-2.7,2.5-3.8c1.1-1.1,2.4-2,3.9-2.6c1.4-0.5,2.9-0.8,4.4-0.8h14.3
	c1.5,0,3,0.3,4.4,0.8c1.4,0.6,2.7,1.5,3.8,2.6c1.1,1.1,2,2.4,2.6,3.8c0.6,1.5,0.9,3,0.9,4.5v1.3H1359.2z M53.9,706.8
	c-1.1,0-2,0.4-2.8,1.2c-0.7,0.7-1.1,1.6-1.1,2.7v22.2c0,1.1,0.4,2.1,1.1,2.8c0.9,0.7,1.8,1.1,2.8,1.1h13c1.1,0,2-0.4,2.7-1.1
	c0.8-0.8,1.2-1.7,1.2-2.8v-22.2c0-1.1-0.4-2-1.2-2.7c-0.7-0.8-1.6-1.2-2.7-1.2H53.9z M345.6,710.7c0-1.1-0.4-2-1.2-2.8
	c-0.7-0.7-1.6-1.1-2.7-1.1h-13c-1.1,0-2.1,0.4-2.8,1.1s-1.1,1.7-1.1,2.8v22.2c0,1.1,0.4,2,1.1,2.7c0.8,0.8,1.7,1.2,2.8,1.2h13
	c1.1,0,2-0.4,2.7-1.2c0.8-0.7,1.2-1.6,1.2-2.7V710.7z M394.3,706.8c-1.1,0-2,0.4-2.8,1.2c-0.7,0.7-1.1,1.6-1.1,2.7v22.2
	c0,1.1,0.4,2.1,1.1,2.8c0.9,0.7,1.8,1.1,2.8,1.1h13c1.1,0,2-0.4,2.7-1.1c0.8-0.8,1.2-1.7,1.2-2.8v-22.2c0-1.1-0.4-2-1.2-2.7
	c-0.7-0.8-1.6-1.2-2.7-1.2H394.3z M590.5,710.7c0-1.1-0.4-2-1.2-2.8c-0.7-0.7-1.6-1.1-2.7-1.1h-13c-1.1,0-2.1,0.4-2.8,1.1
	s-1.1,1.7-1.1,2.8v22.2c0,1.1,0.4,2,1.1,2.7c0.8,0.8,1.7,1.2,2.8,1.2h13c1.1,0,2-0.4,2.7-1.2c0.8-0.7,1.2-1.6,1.2-2.7V710.7z
	 M833.4,706.8c-1.1,0-2,0.4-2.8,1.2c-0.7,0.7-1.1,1.6-1.1,2.7v22.2c0,1.1,0.4,2.1,1.1,2.8c0.9,0.7,1.8,1.1,2.8,1.1h13
	c1.1,0,2-0.4,2.7-1.1c0.8-0.8,1.2-1.7,1.2-2.8v-22.2c0-1.1-0.4-2-1.2-2.7c-0.7-0.8-1.6-1.2-2.7-1.2H833.4z M1057.9,723.3h-16.9
	c-1.1,0-2,0.4-2.8,1.2c-0.7,0.7-1.1,1.6-1.1,2.7v5.6c0,1.1,0.4,2,1.1,2.7c0.8,0.8,1.7,1.2,2.8,1.2h13c1.1,0,2-0.4,2.7-1.2
	c0.8-0.7,1.2-1.6,1.2-2.7V723.3z M1291.7,710.7c0-1.1-0.4-2-1.2-2.8c-0.7-0.7-1.6-1.1-2.7-1.1h-13c-1.1,0-2.1,0.4-2.8,1.1
	c-0.7,0.7-1.1,1.7-1.1,2.8v22.2c0,1.1,0.4,2,1.1,2.7c0.8,0.8,1.7,1.2,2.8,1.2h13c1.1,0,2-0.4,2.7-1.2c0.8-0.7,1.2-1.6,1.2-2.7V710.7
	z M119.6,716.2h20.9v-5.5c0-1.1-0.4-2-1.2-2.8c-0.7-0.7-1.6-1.1-2.7-1.1h-13c-1.1,0-2.1,0.4-2.8,1.1s-1.1,1.7-1.1,2.8V716.2z
	 M460.1,716.2h20.9v-5.5c0-1.1-0.4-2-1.2-2.8c-0.7-0.7-1.6-1.1-2.7-1.1h-13c-1.1,0-2.1,0.4-2.8,1.1s-1.1,1.7-1.1,2.8V716.2z
	 M764.1,716.2h20.9v-5.5c0-1.1-0.4-2-1.2-2.8c-0.7-0.7-1.6-1.1-2.7-1.1h-13c-1.1,0-2.1,0.4-2.8,1.1c-0.7,0.7-1.1,1.7-1.1,2.8V716.2z
	 M1154.8,682.6h9.1v8.4h-9.1V682.6z"/>
<polyline class="st0" points="1284.4,585.9 1290.8,572.1 1302.5,572.1 1291.7,585.9 1284.4,585.9 "/>
</svg>
